<?xml version="1.0" encoding="UTF-8" standalone="no"?>
<svg width="401px" height="69px" viewBox="0 0 401 69" version="1.1" xmlns="http://www.w3.org/2000/svg" xmlns:xlink="http://www.w3.org/1999/xlink">
    <!-- Generator: Sketch 39.1 (31720) - http://www.bohemiancoding.com/sketch -->
    <title>Slice</title>
    <desc>Created with Sketch.</desc>
    <defs></defs>
    <g id="Page-1" stroke="none" stroke-width="1" fill="none" fill-rule="evenodd">
        <g id="Group">
            <rect id="Rectangle" fill="#1C32CA" x="97" y="0" width="19" height="69"></rect>
            <rect id="Rectangle" fill="#1FAD5A" x="116" y="0" width="19" height="69"></rect>
            <rect id="Rectangle" fill="#1C32CA" x="97" y="0" width="19" height="69"></rect>
            <rect id="Rectangle" fill="#1FAD5A" x="116" y="0" width="19" height="69"></rect>
            <rect id="Rectangle" fill="#1C32CA" x="135" y="0" width="19" height="69"></rect>
            <rect id="Rectangle" fill="#1FAD5A" x="154" y="0" width="19" height="69"></rect>
            <rect id="Rectangle" fill="#1C32CA" x="173" y="0" width="19" height="69"></rect>
            <rect id="Rectangle" fill="#1FAD5A" x="192" y="0" width="19" height="69"></rect>
            <rect id="Rectangle" fill="#1C32CA" x="173" y="0" width="19" height="69"></rect>
            <rect id="Rectangle" fill="#1FAD5A" x="192" y="0" width="19" height="69"></rect>
            <rect id="Rectangle" fill="#1C32CA" x="211" y="0" width="19" height="69"></rect>
            <rect id="Rectangle" fill="#1FAD5A" x="230" y="0" width="19" height="69"></rect>
            <rect id="Rectangle" fill="#1C32CA" x="249" y="0" width="19" height="69"></rect>
            <rect id="Rectangle" fill="#1FAD5A" x="268" y="0" width="19" height="69"></rect>
            <rect id="Rectangle" fill="#1C32CA" x="249" y="0" width="19" height="69"></rect>
            <rect id="Rectangle" fill="#1FAD5A" x="268" y="0" width="19" height="69"></rect>
            <rect id="Rectangle" fill="#1C32CA" x="287" y="0" width="19" height="69"></rect>
            <rect id="Rectangle" fill="#1FAD5A" x="306" y="0" width="19" height="69"></rect>
            <rect id="Rectangle" fill="#1C32CA" x="325" y="0" width="19" height="69"></rect>
            <rect id="Rectangle" fill="#1FAD5A" x="344" y="0" width="19" height="69"></rect>
            <rect id="Rectangle" fill="#1C32CA" x="325" y="0" width="19" height="69"></rect>
            <rect id="Rectangle" fill="#1FAD5A" x="344" y="0" width="19" height="69"></rect>
            <rect id="Rectangle" fill="#1C32CA" x="363" y="0" width="19" height="69"></rect>
            <rect id="Rectangle" fill="#1FAD5A" x="382" y="0" width="19" height="69"></rect>
            <text id="Одноядерный-процессо" font-family="Helvetica" font-size="12" font-weight="normal" fill="#000000">
                <tspan x="0" y="18">Одноядерный</tspan>
                <tspan x="0" y="32">процессор</tspan>
            </text>
        </g>
    </g>
</svg>